<svg width="84" height="71" viewBox="0 0 84 71" fill="none" xmlns="http://www.w3.org/2000/svg">
<path d="M45.4168 46.0753L43.8711 36.1108C43.6922 34.9227 43.3345 32.0654 43.2792 31.4735C43.2238 30.8815 43.2195 30.6984 43.1301 30.0767C43.1301 30.4302 43.1301 31.5033 42.4743 35.9319L41.0095 46.0753H39.1741L36.4956 25.6736H38.6972L39.7958 36.0512C40.0652 38.0038 40.2244 39.97 40.2728 41.9405C40.3324 40.3351 40.5708 37.5671 40.7497 36.1704L42.1464 25.6736H44.1393L45.6255 36.0512C46.013 38.6999 46.162 41.4039 46.1919 41.9405C46.2813 40.2371 46.4005 37.7758 46.5794 36.0512L47.6482 25.6736H49.6411L47.2607 46.0753H45.4168Z" fill="#151551"/>
<path d="M51.4253 29.8083C51.6936 28.1731 52.3792 25.4946 55.4111 25.4946C58.443 25.4946 59.1286 28.1731 59.3969 29.8083C59.9536 33.8532 59.9536 37.9552 59.3969 42C59.1286 43.6352 58.443 46.3137 55.4111 46.3137C52.3792 46.3137 51.6936 43.6352 51.4253 42C50.8687 37.9552 50.8687 33.8532 51.4253 29.8083ZM57.2848 41.523C57.4338 40.3648 57.5531 37.1242 57.5531 35.8722C57.5531 34.6203 57.4338 31.3839 57.2848 30.2214C57.1954 29.4804 56.8973 27.4279 55.4111 27.4279C54.6659 27.4279 53.8057 27.9645 53.5374 30.2214C53.3884 31.6224 53.299 34.3264 53.299 35.8722C53.299 37.418 53.3884 40.1306 53.5374 41.523C53.8057 43.7842 54.6659 44.3208 55.4111 44.3208C56.8973 44.3208 57.1911 42.2683 57.2848 41.523Z" fill="#151551"/>
<path d="M70.1024 46.0753L68.5566 36.1108C68.3778 34.9227 68.0201 32.0654 67.9604 31.4735C67.9008 30.8815 67.9008 30.6984 67.8114 30.0767C67.8114 30.4302 67.8114 31.5033 67.1599 35.9319L65.6695 46.0753H63.8554L61.1812 25.6736H63.3827L64.4814 36.0512C64.7507 38.0038 64.9099 39.97 64.9583 41.9405C65.0179 40.3351 65.2564 37.5671 65.4352 36.1704L66.832 25.6736H68.8249L70.311 36.0512C70.6986 38.6999 70.8476 41.4039 70.8774 41.9405C70.9668 40.2371 71.0861 37.7758 71.2607 36.0512L72.3338 25.6736H74.3267L71.9462 46.0753H70.1024Z" fill="#151551"/>
<path d="M77.1798 40.961L76.7795 25.6736H79.1301L78.7426 40.961H77.1798ZM76.8519 46.0455V42.8645H79.2025V46.0455H76.8519Z" fill="#151551"/>
<path d="M45.6551 50.5508V70.9525H43.5259V52.5437H39.9148V70.9525H37.7856V50.5508H45.6551Z" fill="#151551"/>
<path d="M48.751 50.5508H50.8589V63.3258L50.7737 65.2889L51.5146 62.6402L55.2024 51.6665V50.5678H57.3315V70.9695H55.2024V58.0455L55.2918 56.0526L54.5764 58.8162L50.8589 69.7304V70.9525H48.751V50.5508Z" fill="#151551"/>
<path d="M61.1512 70.9525V52.4841H58.5962V50.5508H65.878V52.4841H63.2931V70.9525H61.1512Z" fill="#151551"/>
<path d="M67.1599 70.9525V50.5806H73.82V52.5139H69.3317V59.2931H72.7809V61.286H69.3317V69.0192H74.0584V70.9525H67.1599Z" fill="#151551"/>
<path d="M76.0811 70.9525V50.5508H78.7851C79.8284 50.5508 80.9867 50.5806 82.0598 51.7687C82.7113 52.4841 83.3969 53.851 83.3969 56.7935C83.3969 59.1441 82.9711 60.626 82.1492 61.5245C81.7803 61.925 81.3276 62.239 80.8234 62.4444C80.3192 62.6498 79.7759 62.7414 79.2322 62.7126H78.2528V70.9525H76.0811ZM78.9341 60.7793C79.2575 60.8113 79.5833 60.7501 79.873 60.603C80.1628 60.4559 80.4044 60.2289 80.5693 59.9489C80.8376 59.5614 81.1953 58.7268 81.1953 56.7083C81.1953 54.6899 80.8972 53.9106 80.629 53.4635C80.4789 53.1607 80.2451 52.9074 79.9551 52.7337C79.6652 52.5601 79.3315 52.4734 78.9938 52.4841H78.2528V60.7793H78.9341Z" fill="#151551"/>
<path d="M21.4893 49.6821C21.4893 49.7374 21.617 49.7246 21.6511 49.7246H22.9286C23.1019 49.7149 23.2714 49.67 23.4268 49.5926C23.5035 49.5586 23.6695 49.4989 23.6695 49.3967C23.6695 48.9326 23.6695 48.4727 23.6908 48.0085C23.6908 47.7104 23.6908 47.4166 23.6908 47.1185C23.7054 46.9997 23.6947 46.879 23.6595 46.7646C23.6243 46.6501 23.5653 46.5444 23.4864 46.4542C23.3517 46.3508 23.1878 46.2927 23.018 46.2881C22.7132 46.2581 22.4057 46.3049 22.1238 46.4244C21.9612 46.4747 21.8163 46.5703 21.7062 46.7001C21.5961 46.8298 21.5252 46.9883 21.502 47.1569C21.4935 47.2503 21.4935 47.3444 21.502 47.4379V49.665L21.4893 49.6821ZM22.3963 46.9993C22.3965 46.8979 22.4183 46.7978 22.4602 46.7055C22.5277 46.7256 22.5891 46.7622 22.639 46.8119C22.7568 46.9919 22.8094 47.2068 22.7881 47.4209C22.7881 47.6934 22.7881 47.9702 22.7881 48.2427C22.7881 48.6175 22.7881 48.9879 22.7881 49.3627H22.4091C22.392 48.5706 22.375 47.7871 22.3963 46.9993Z" fill="#151551"/>
<path d="M21.4893 57.2536C21.4893 57.3047 21.617 57.2962 21.6511 57.2962H22.9286C23.1016 57.2878 23.2711 57.2443 23.4268 57.1684C23.5035 57.1343 23.6695 57.0705 23.6695 56.9683C23.6695 56.5084 23.6695 56.0442 23.6908 55.58C23.6908 55.2862 23.6908 54.9881 23.6908 54.69C23.7054 54.5712 23.6947 54.4506 23.6595 54.3361C23.6243 54.2216 23.5653 54.1159 23.4864 54.0257C23.3503 53.9251 23.1872 53.8672 23.018 53.8597C22.7133 53.8317 22.4063 53.8785 22.1238 53.9959C21.9608 54.047 21.8158 54.1434 21.7057 54.2739C21.5956 54.4043 21.525 54.5635 21.502 54.7326C21.4934 54.8247 21.4934 54.9174 21.502 55.0094V57.2408L21.4893 57.2536ZM22.3963 54.5708C22.3965 54.4695 22.4183 54.3693 22.4602 54.277C22.5272 54.2959 22.5887 54.331 22.639 54.3792C22.7568 54.5592 22.8094 54.7741 22.7881 54.9881C22.7881 55.2649 22.7881 55.5375 22.7881 55.81C22.7881 56.1847 22.7881 56.5595 22.7881 56.9299H22.4091C22.392 56.1421 22.375 55.3586 22.3963 54.5708Z" fill="#151551"/>
<path d="M22.7409 41.7317C22.5001 41.6039 22.2248 41.5564 21.9551 41.5962C21.6854 41.6361 21.4355 41.7611 21.242 41.9532C21.0986 42.1198 21.0125 42.3281 20.9964 42.5474C20.9803 42.7666 21.035 42.9852 21.1526 43.1711C21.3291 43.4319 21.5735 43.6396 21.8594 43.7717C22.1453 43.9038 22.4619 43.9552 22.775 43.9205C23.0167 43.8905 23.24 43.7759 23.4052 43.5969C23.5772 43.4048 23.6727 43.1563 23.6735 42.8985C23.6464 42.635 23.5441 42.3849 23.3788 42.178C23.2134 41.9711 22.992 41.8162 22.7409 41.7317ZM22.643 42.1576C22.5578 42.1278 22.5748 42.1278 22.6046 42.1576H22.643ZM21.9489 43.2051C21.9489 43.2051 21.9489 43.2477 21.9489 43.2051V43.2051ZM22.8005 42.8687C22.7753 42.9525 22.7364 43.0317 22.6856 43.1029C22.6511 43.1603 22.6063 43.2108 22.5535 43.252C22.4903 43.3053 22.4201 43.3497 22.3449 43.384H22.2895L22.1746 43.4053H22.0596H22.0213C22.0076 43.393 21.9961 43.3787 21.9872 43.3627C21.9872 43.3627 21.9616 43.3244 21.9531 43.3031C21.9327 43.2693 21.9155 43.2337 21.902 43.1966C21.9002 43.1739 21.9002 43.1511 21.902 43.1285C21.8979 43.0831 21.8979 43.0375 21.902 42.9922C21.8942 42.8434 21.9297 42.6954 22.0042 42.5664C22.0245 42.5321 22.0472 42.4993 22.0724 42.4684C22.087 42.4453 22.1041 42.4239 22.1235 42.4046C22.1862 42.346 22.2564 42.2959 22.3321 42.2555H22.3747L22.4812 42.23H22.5408C22.5606 42.2321 22.5806 42.2321 22.6004 42.23L22.643 42.2768L22.6813 42.3364L22.7154 42.4003C22.7141 42.413 22.7141 42.4259 22.7154 42.4386C22.7437 42.5283 22.7595 42.6214 22.7622 42.7154C22.7663 42.7593 22.7663 42.8035 22.7622 42.8474L22.8005 42.8687Z" fill="#151551"/>
<path d="M20.7227 7.88208C20.7227 7.88208 20.7406 7.88657 20.7227 7.88208V7.88208Z" fill="#151551"/>
<path d="M9.66795 67.052H17.7588C17.8097 67.0533 17.8601 67.0415 17.9052 67.0178C17.9503 66.9941 17.9885 66.9592 18.0163 66.9165C18.044 66.8738 18.0604 66.8247 18.0637 66.7739C18.0671 66.723 18.0574 66.6722 18.0356 66.6262C17.9904 66.5157 17.9131 66.4213 17.8136 66.3552C17.7141 66.2892 17.5971 66.2545 17.4778 66.2557H9.3869C9.33598 66.2544 9.28559 66.2662 9.24052 66.2899C9.19545 66.3137 9.15721 66.3485 9.12946 66.3912C9.1017 66.4339 9.08535 66.4831 9.08196 66.5339C9.07857 66.5847 9.08826 66.6355 9.11011 66.6815C9.1553 66.7921 9.23264 66.8865 9.3321 66.9525C9.43156 67.0186 9.54856 67.0532 9.66795 67.052Z" fill="#151551"/>
<path d="M32.5906 70.1776H22.9199C23.5246 68.3635 24.1321 66.5495 24.7425 64.7354L25.0022 63.9561H30.9384C31.4451 63.9561 31.0448 63.1257 30.6531 63.1257H24.5466C24.5033 63.1229 24.4601 63.1322 24.4217 63.1525C24.3834 63.1728 24.3514 63.2033 24.3294 63.2407L22.2726 69.3727L22.0044 70.1776H20.8461L23.5629 62.0867H31.6963C32.2073 62.0867 31.8028 61.2563 31.4153 61.2563H25.8794V60.724H31.9774C32.0968 60.7305 32.2151 60.6978 32.3142 60.6309C32.4133 60.5641 32.488 60.4667 32.5267 60.3536C32.5394 60.3013 32.5397 60.2468 32.5276 60.1945C32.5155 60.1421 32.4913 60.0932 32.457 60.0519C32.4226 60.0105 32.3791 59.9777 32.3298 59.9562C32.2806 59.9346 32.227 59.9249 32.1733 59.9277H25.8709C25.9075 59.5933 26.0228 59.2722 26.2073 58.9909C26.2329 58.944 26.1435 58.8674 26.1264 58.8461L25.7773 58.4969C25.6921 58.4075 25.5175 58.152 25.5047 58.1988C25.509 58.1564 25.509 58.1136 25.5047 58.0711C25.5047 57.9561 25.5047 57.8326 25.5047 57.7432V52.6758C25.477 52.4694 25.477 52.2604 25.5047 52.054C25.6444 51.8207 25.8133 51.606 26.0072 51.4153C26.0094 51.3997 26.0079 51.3839 26.0027 51.3691C25.9975 51.3543 25.9888 51.3409 25.9774 51.3301C25.7432 51.0336 25.5814 50.6866 25.5047 50.3166C25.4494 49.746 25.5047 49.1456 25.5047 48.5707V45.3046C25.5047 45.2577 25.4536 45.1981 25.3812 45.1428C25.5723 45.1001 25.7459 45.0006 25.8794 44.8574C26.0668 44.7041 26.2159 44.5466 26.1009 44.2953C25.9274 43.9793 25.653 43.7304 25.3216 43.5885C25.2307 43.5482 25.1298 43.5364 25.032 43.5544C25.0185 43.5098 25.0085 43.4643 25.0022 43.4181C24.9627 42.8029 24.8469 42.195 24.6573 41.6083C24.4688 41.1749 24.1762 40.7946 23.8056 40.5012C23.993 40.4202 24.1506 40.2669 24.0313 40.0753C23.5459 39.2237 23.6055 38.3038 23.4735 37.3628C23.4422 36.8727 23.2206 36.4142 22.856 36.0853C22.8288 36.0347 22.7873 35.9933 22.7368 35.966V35.0377C22.7368 34.7907 22.7368 34.531 22.7368 34.2797C22.7368 34.1392 22.7794 33.8539 22.707 34.0285C22.9123 33.6952 22.9824 33.296 22.9029 32.9128C22.8702 32.7698 22.8083 32.635 22.7211 32.517C22.6339 32.3991 22.5233 32.3004 22.3961 32.2272L21.7829 11.4976C21.7574 10.4983 21.729 9.49472 21.6978 8.48691C21.695 8.45249 21.6849 8.41907 21.6679 8.38897C21.8656 8.33087 22.0398 8.21195 22.166 8.04911C22.2921 7.88627 22.3637 7.68781 22.3706 7.48194C22.3526 7.27778 22.2824 7.08167 22.1668 6.91241C22.0512 6.74314 21.8941 6.60641 21.7105 6.5153C21.7331 6.47512 21.7502 6.43218 21.7616 6.38755C22.0317 5.62397 22.3445 4.87616 22.6985 4.14766C22.8347 3.84106 23.201 3.2534 22.6985 3.07455C22.462 3.00387 22.2074 3.02674 21.9873 3.13843C21.9325 3.16406 21.8799 3.19396 21.8298 3.22785C21.7803 3.19126 21.7234 3.16584 21.6631 3.15335C21.6028 3.14085 21.5406 3.14157 21.4806 3.15546L22.2088 2.55504L22.4898 2.31657C22.5579 2.26121 22.196 2.21863 22.1662 2.21863C22.0442 2.21215 21.9219 2.21215 21.8 2.21863C21.7446 2.21863 21.6254 2.21863 21.5828 2.21863L21.3699 2.39748V0.106487C21.3699 -0.102172 20.4415 0.0128035 20.4415 0.298113V3.16824L19.5899 3.87086L19.3088 4.10933C19.2449 4.16469 19.6069 4.20727 19.6325 4.21153C19.7544 4.21993 19.8767 4.21993 19.9987 4.21153C20.054 4.21153 20.1733 4.21153 20.2201 4.21153L20.4288 4.03268V6.27683C20.2365 6.32188 20.0617 6.42259 19.9263 6.5664C19.7813 6.71965 19.694 6.91847 19.6792 7.12892C19.6645 7.33937 19.7232 7.54842 19.8454 7.72041C20.0219 7.95661 20.2566 8.14296 20.5267 8.26122C20.475 8.28377 20.4307 8.32056 20.399 8.3673C20.3673 8.41404 20.3496 8.46881 20.3479 8.52524C20.1577 15.4749 19.9646 22.4302 19.7687 29.3911L19.6921 32.2357C19.4918 32.3447 19.3331 32.5169 19.2407 32.7254C19.015 33.2279 19.2407 33.5771 19.3642 34.037C19.3344 33.9561 19.3642 34.1434 19.3642 34.2456C19.3642 34.4884 19.3642 34.7396 19.3642 34.9823V36.0129C19.1587 36.1605 18.9882 36.3514 18.8646 36.5721C18.741 36.7929 18.6673 37.038 18.6488 37.2904C18.4912 38.274 18.5721 39.2194 18.0654 40.1009C18.0421 40.1363 18.0297 40.1777 18.0297 40.2201C18.0297 40.2625 18.0421 40.3039 18.0654 40.3393C17.6347 40.6725 17.3335 41.1453 17.2137 41.6765C17.0817 42.2811 17.0562 42.9071 16.9114 43.5033C16.7697 43.4905 16.6272 43.4905 16.4855 43.5033C16.3204 43.5359 16.1695 43.619 16.0535 43.741C15.9376 43.863 15.8624 44.018 15.8383 44.1846C15.8383 44.4912 16.1193 44.7212 16.3365 44.8873C16.4132 44.9426 16.4941 45.0022 16.5792 45.0533C16.5792 45.0533 16.5792 45.0789 16.5792 45.0959V48.5026C16.5792 49.0689 16.6005 49.6353 16.5792 50.2059C16.5735 50.2526 16.5735 50.2998 16.5792 50.3465L16.5537 50.3805C16.3662 50.625 16.1551 50.8503 15.9234 51.0533C15.8934 51.0769 15.8716 51.1093 15.8609 51.146C15.8502 51.1826 15.8512 51.2217 15.8638 51.2577C16.1145 51.7117 16.2353 52.2258 16.213 52.7439C16.213 53.4252 16.213 54.1108 16.213 54.7879C16.2123 54.9687 16.2009 55.1493 16.1789 55.3287C16.0853 55.9377 15.7276 56.0739 15.4337 56.5296C15.1399 56.9852 15.2975 57.5175 15.208 58.0541C15.1742 58.2153 15.0943 58.3632 14.9781 58.4799L14.927 58.2201C14.927 58.1222 14.8972 58.0328 14.8759 57.9561C14.663 57.0022 14.3308 56.5168 13.7347 56.2826C13.0376 55.9648 12.2821 55.7951 11.5161 55.7844C11.184 55.7799 10.8556 55.8544 10.5579 56.0015C10.4004 56.1026 10.2572 56.2243 10.1321 56.3635C9.98578 56.5578 9.77396 56.6925 9.53592 56.7425C9.11009 56.7766 8.88014 56.2741 8.65445 55.7588C8.5231 55.3625 8.29474 55.0053 7.99014 54.7198C7.76232 54.5726 7.50415 54.4789 7.23497 54.4457C6.96579 54.4125 6.69259 54.4407 6.43585 54.5281C5.77275 54.6982 5.18715 55.0886 4.77509 55.6353C4.58394 55.8985 4.42657 56.1846 4.30668 56.487C4.25558 56.602 4.20448 56.7169 4.14912 56.8277C3.95329 57.2359 3.69465 57.611 3.38262 57.9391C3.00438 58.3406 2.55037 58.6632 2.04679 58.8883C1.54321 59.1134 1.00004 59.2366 0.448616 59.2506C0.25699 59.2506 0.193115 59.3614 0.193115 59.455C0.202324 59.5398 0.241881 59.6184 0.304489 59.6763C0.367098 59.7343 0.448536 59.7676 0.533783 59.7702C1.36222 59.7573 2.17222 59.5236 2.88013 59.0931C3.52244 58.7207 4.06576 58.1993 4.46424 57.5729C4.60403 57.338 4.72643 57.0932 4.83045 56.8404C4.9071 56.6658 4.98801 56.4827 5.07744 56.3167C5.27037 55.9565 5.54267 55.6448 5.87375 55.4054C6.39327 55.0349 7.15125 54.7198 7.60263 55.0775C7.85396 55.3428 8.04178 55.6616 8.15196 56.01C8.3521 56.4998 8.5778 57.0022 8.97808 57.1641C9.26601 57.2681 9.57745 57.2888 9.87659 57.2237C10.1453 57.1479 10.3845 56.9919 10.5622 56.7766C10.6479 56.6874 10.7389 56.6035 10.8347 56.5253C11.4862 56.0058 12.4571 56.3465 13.1768 56.602C13.39 56.6463 13.5865 56.7496 13.7439 56.9002C13.9012 57.0508 14.0131 57.2426 14.0668 57.4536C14.1356 57.6787 14.1911 57.9076 14.2329 58.1392C14.2712 58.3351 14.3138 58.5353 14.3691 58.7269C14.421 58.9348 14.5272 59.1252 14.6769 59.2786C14.8265 59.432 15.0142 59.5428 15.2208 59.5998C15.2592 59.6765 15.2864 59.7582 15.3017 59.8426C15.3449 60.4095 15.3449 60.9789 15.3017 61.5459V64.5651H5.26906C4.7538 64.5651 4.4983 65.2294 5.12428 65.2294H17.5629C18.0782 65.2294 18.3337 64.5651 17.7077 64.5651H16.2386V60.5409C16.313 60.0677 16.2016 59.584 15.9277 59.191C15.8386 59.0766 15.7561 58.9572 15.6807 58.8333V58.8078C15.7483 58.72 15.8208 58.6361 15.8979 58.5565C16.1449 58.2116 16.0512 58.0157 16.0725 57.5643C16.0656 57.3639 16.0998 57.1641 16.173 56.9773C16.2463 56.7906 16.357 56.6208 16.4983 56.4785C16.6703 56.324 16.8144 56.1411 16.9242 55.9377C17.0463 55.614 17.1056 55.27 17.0987 54.9242C17.1286 54.1832 17.0987 53.4338 17.0987 52.6928C17.12 52.4662 17.12 52.2381 17.0987 52.0115C17.0621 51.877 17.0107 51.7471 16.9454 51.624C16.888 51.5184 16.8382 51.4088 16.7964 51.2961C16.7964 51.2492 16.7709 51.2279 16.7581 51.2194C16.9795 50.7936 17.4309 50.6999 17.4607 50.1463C17.5544 48.5068 17.4607 46.8418 17.4607 45.1981H22.0299C22.1143 45.1972 22.1974 45.1768 22.2726 45.1385H24.6829V48.7283C24.6445 49.176 24.6445 49.6262 24.6829 50.0739H20.7141V46.1094C20.7141 45.7134 19.8071 45.4664 19.8071 45.922V50.3166C19.8071 50.5807 20.1648 50.7425 20.3819 50.7425H25.0278C25.045 50.77 25.0606 50.7984 25.0746 50.8276C25.1598 51.0661 25.1513 50.8958 25.0959 51.0576C25.0406 51.2194 24.8276 51.3386 24.751 51.4834C24.6526 51.7942 24.6249 52.123 24.6701 52.4458V57.0917C24.6701 57.2748 24.6701 57.4494 24.6701 57.6112H20.6885V53.7787C20.6956 53.6574 20.6617 53.5372 20.5922 53.4375C20.5227 53.3379 20.4216 53.2645 20.3053 53.2294C20.2527 53.214 20.1973 53.2106 20.1432 53.2192C20.0891 53.2279 20.0376 53.2484 19.9924 53.2794C19.9472 53.3103 19.9094 53.3509 19.8818 53.3982C19.8541 53.4455 19.8373 53.4984 19.8326 53.553V57.9476C19.8232 58.0882 19.87 58.2267 19.9626 58.3328C20.0552 58.439 20.186 58.5041 20.3266 58.514H25.1555C25.1993 58.5129 25.2425 58.5042 25.2833 58.4884C25.3302 58.5194 25.3683 58.5619 25.394 58.6119C25.4195 58.6885 25.3642 58.4799 25.3003 58.6502C25.1801 58.8624 25.0857 59.0883 25.0193 59.323C24.9681 59.9522 24.9681 60.5845 25.0193 61.2137H23.1243C23.0519 61.2137 22.9369 61.2478 22.9114 61.333C21.9178 64.2911 20.9256 67.2393 19.9348 70.1776H9.38688C8.80349 70.1776 9.22081 70.9611 9.66793 70.9611H20.3138C20.3497 70.9853 20.3919 70.9982 20.4352 70.9982C20.4784 70.9982 20.5207 70.9853 20.5565 70.9611H22.3833C22.4201 70.9851 22.463 70.9979 22.5068 70.9979C22.5507 70.9979 22.5936 70.9851 22.6303 70.9611H32.8717C33.4593 70.9611 33.042 70.1776 32.5906 70.1776ZM21.3699 3.94326C21.5097 4.0127 21.6655 4.04357 21.8212 4.03268L21.7829 4.12211C21.6467 4.43722 21.5061 4.74808 21.3571 5.0632L21.3699 3.94326ZM21.3443 6.77506C21.3699 6.77506 21.3869 6.80061 21.3443 6.77506V6.77506ZM20.6843 7.1285C20.7056 7.09869 20.7269 7.06462 20.7524 7.03482L20.795 6.99649C20.8547 6.94348 20.9204 6.89774 20.9909 6.86022H21.0249H21.0633L21.1825 6.83042H21.2336H21.3443C21.3621 6.84581 21.3766 6.86464 21.3869 6.88577L21.3784 6.81338L21.4039 6.85597C21.4227 6.88916 21.4397 6.92327 21.455 6.95817V7.0263C21.4592 7.07305 21.4592 7.12008 21.455 7.16682C21.4492 7.31129 21.4003 7.45071 21.3145 7.56711C21.2766 7.62211 21.229 7.66973 21.174 7.70763L21.0846 7.76725L21.0335 7.7928L20.9951 7.81409L20.8929 7.8439H20.8418H20.7907H20.6928L20.6672 7.81409C20.658 7.80761 20.6507 7.79879 20.6459 7.78854C20.6286 7.75819 20.613 7.72691 20.5991 7.69486V7.66079L20.5693 7.66505C20.5693 7.66505 20.5693 7.57988 20.5693 7.5373C20.5568 7.39268 20.5912 7.24787 20.6672 7.12424L20.6843 7.1285ZM20.7439 7.89074L20.7226 7.86945L20.7439 7.89074ZM20.267 32.768C20.4245 32.7297 20.6247 32.6445 20.6332 32.4486L21.0292 18.1576C21.1371 21.9362 21.2421 25.7119 21.3443 29.4848C21.3741 30.4898 21.3997 31.4905 21.4295 32.4955C21.4295 32.6317 21.5956 32.7169 21.7063 32.7467C22.1875 32.8659 21.7574 34.0668 21.7616 34.4799L21.7872 35.7701H20.2755C20.2755 35.3443 20.2755 34.9185 20.2755 34.4926C20.2755 34.0668 19.9816 32.8319 20.267 32.7595V32.768ZM19.4153 38.8319C19.4706 38.406 19.4451 36.6559 19.922 36.5494C20.0135 36.5308 20.0994 36.4915 20.1733 36.4344H20.2712H21.9192C21.972 36.4717 22.0312 36.4991 22.0938 36.5153C22.69 36.6516 22.6218 38.2911 22.6729 38.7425C22.7064 39.1312 22.7924 39.5137 22.9284 39.8794H21.1782H21.1016H19.147C19.2798 39.5412 19.363 39.1855 19.394 38.8234L19.4153 38.8319ZM16.8603 43.614C16.8603 43.6523 16.8603 43.614 16.8603 43.614C16.8603 43.614 16.8134 43.614 16.8432 43.6055L16.8603 43.614ZM25.0533 44.355L24.8702 44.4827C24.8447 44.4827 24.8021 44.5168 24.8021 44.521C24.8021 44.5253 24.7084 44.521 24.6658 44.521H22.2726C22.2019 44.488 22.125 44.4706 22.0469 44.4699H17.0775C16.9891 44.4158 16.9064 44.353 16.8305 44.2826C17.0313 44.3093 17.2356 44.2767 17.4181 44.1889C17.8823 43.9504 17.844 43.3074 17.9206 42.8645C18.0058 42.23 18.0441 41.4635 18.5423 40.9994C18.6861 40.8689 18.8519 40.7651 19.032 40.6928L19.1342 40.6587H19.2109C19.2569 40.6495 19.3014 40.6337 19.3429 40.6119H21.0462C21.0717 40.6142 21.0974 40.6142 21.1229 40.6119H23.1584C23.1584 40.6119 23.1882 40.6119 23.201 40.6119C23.2488 40.6206 23.2958 40.6334 23.3415 40.6502C23.4376 40.684 23.5314 40.7238 23.6225 40.7694C23.5757 40.7226 23.6821 40.8461 23.6779 40.8333C23.8134 41.0364 23.9048 41.2656 23.9462 41.5061C24.0569 42.0299 24.1037 42.5579 24.1889 43.086C24.2187 43.2892 24.2954 43.4828 24.4129 43.6513C24.5304 43.8198 24.6855 43.9586 24.866 44.0569C24.9419 44.1007 25.0236 44.1337 25.1087 44.1548L25.0533 44.355Z" fill="#151551"/>
</svg>
