<svg width="24" height="24" viewBox="0 0 24 24" fill="none" xmlns="http://www.w3.org/2000/svg">
<g clip-path="url(#clip0_246_257)">
<path fill-rule="evenodd" clip-rule="evenodd" d="M23.6654 11.7275C23.6654 18.1708 18.442 23.3941 11.9987 23.3941C5.55538 23.3941 0.332031 18.1708 0.332031 11.7275C0.332031 5.28414 5.55538 0.060791 11.9987 0.060791C18.442 0.060791 23.6654 5.28414 23.6654 11.7275ZM12.4168 8.67366C11.282 9.14564 9.01411 10.1225 5.61304 11.6043C5.06076 11.8239 4.77145 12.0388 4.74512 12.2489C4.70061 12.6039 5.14523 12.7437 5.75069 12.9341C5.83305 12.96 5.91838 12.9869 6.00587 13.0153C6.60155 13.2089 7.40284 13.4355 7.8194 13.4445C8.19726 13.4526 8.619 13.2968 9.08461 12.9771C12.2623 10.8321 13.9027 9.74785 14.0057 9.72447C14.0783 9.70798 14.179 9.68725 14.2472 9.74788C14.3154 9.80852 14.3087 9.92334 14.3015 9.95415C14.2575 10.1419 12.5121 11.7645 11.6089 12.6042C11.3274 12.866 11.1277 13.0517 11.0868 13.0941C10.9954 13.1891 10.9022 13.2789 10.8126 13.3653C10.2592 13.8988 9.84417 14.2988 10.8356 14.9521C11.312 15.2661 11.6932 15.5257 12.0735 15.7847C12.4889 16.0676 12.9032 16.3497 13.4392 16.701C13.5757 16.7906 13.7061 16.8835 13.8332 16.9741C14.3166 17.3187 14.7508 17.6283 15.2873 17.5789C15.5991 17.5502 15.9211 17.2571 16.0846 16.3828C16.4711 14.3166 17.2308 9.83986 17.4064 7.99509C17.4218 7.83347 17.4024 7.62662 17.3869 7.53581C17.3714 7.44501 17.3389 7.31564 17.2209 7.21987C17.0811 7.10644 16.8653 7.08253 16.7688 7.08423C16.33 7.09196 15.6567 7.32605 12.4168 8.67366Z" fill="#151515"/>
</g>
<defs>
<clipPath id="clip0_246_257">
<rect width="23.3333" height="23.3333" fill="white" transform="translate(0.332031 0.060791)"/>
</clipPath>
</defs>
</svg>
