<svg width="24" height="24" viewBox="0 0 24 24" fill="none" xmlns="http://www.w3.org/2000/svg">
<g clip-path="url(#clip0_246_258)">
<path fill-rule="evenodd" clip-rule="evenodd" d="M2.30524 1.70099C0.665039 3.3412 0.665039 5.98104 0.665039 11.2608V12.1941C0.665039 17.4739 0.665039 20.1137 2.30524 21.7539C3.94544 23.3941 6.58529 23.3941 11.865 23.3941H12.7984C18.0781 23.3941 20.7179 23.3941 22.3582 21.7539C23.9984 20.1137 23.9984 17.4739 23.9984 12.1941V11.2608C23.9984 5.98104 23.9984 3.3412 22.3582 1.70099C20.7179 0.060791 18.0781 0.060791 12.7984 0.060791H11.865C6.58529 0.060791 3.94544 0.060791 2.30524 1.70099ZM4.6026 7.15806C4.72899 13.2247 7.76231 16.8706 13.0804 16.8706H13.3818V13.3997C15.336 13.5942 16.8137 15.0233 17.4067 16.8706H20.1679C19.4095 14.1095 17.4164 12.5831 16.1719 11.9997C17.4164 11.2803 19.1664 9.53028 19.5844 7.15806H17.0761C16.5316 9.08306 14.9179 10.8331 13.3818 10.9983V7.15806H10.8734V13.8858C9.31782 13.497 7.35398 11.6108 7.26648 7.15806H4.6026Z" fill="#151515"/>
</g>
<defs>
<clipPath id="clip0_246_258">
<rect width="23.3333" height="23.3333" fill="white" transform="translate(0.665039 0.060791)"/>
</clipPath>
</defs>
</svg>
