<svg width="24" height="24" viewBox="0 0 24 24" fill="none" xmlns="http://www.w3.org/2000/svg">
<path d="M11.7158 23.2471C18.1204 23.2445 23.3294 18.0343 23.332 11.631C23.3332 8.52721 22.126 5.60873 19.9329 3.41313C17.7397 1.21742 14.8232 0.00768881 11.7157 0.00634766C5.31293 0.00634766 0.101892 5.21711 0.099344 11.6218C0.0984723 13.6692 0.633373 15.6675 1.64992 17.4292L0.00195312 23.4486L6.15989 21.8332C7.85656 22.7587 9.76686 23.2464 11.711 23.2471H11.7158Z" fill="#151515"/>
<path d="M6.44464 19.7304L2.79043 20.689L3.7658 17.1262L3.53623 16.7609C2.56976 15.2237 2.05931 13.447 2.06006 11.6227C2.06217 6.29935 6.39341 1.96851 11.719 1.96851C14.2979 1.9694 16.722 2.97494 18.5449 4.79993C20.3678 6.62492 21.3711 9.05064 21.3701 11.6305C21.3679 16.9542 17.0367 21.2855 11.7152 21.2855H11.7113C9.97882 21.2848 8.27957 20.8193 6.7972 19.9397L6.44464 19.7304Z" fill="#151515"/>
<path d="M17.5687 14.3935C17.4961 14.2724 17.3027 14.1998 17.0124 14.0544C16.7222 13.9091 15.2952 13.2071 15.029 13.1101C14.7631 13.0133 14.5695 12.9649 14.376 13.2554C14.1826 13.5459 13.6263 14.1998 13.457 14.3935C13.2877 14.5871 13.1183 14.6114 12.8282 14.4661C12.5379 14.3208 11.6027 14.0144 10.494 13.0255C9.63119 12.2558 9.04867 11.3054 8.87936 11.0148C8.71005 10.7242 8.86131 10.5672 9.00662 10.4224C9.1372 10.2923 9.29689 10.0834 9.442 9.91392C9.58712 9.74448 9.63549 9.62333 9.73224 9.42976C9.82899 9.23596 9.78063 9.06653 9.70805 8.92123C9.63549 8.77594 9.05502 7.34726 8.81315 6.76609C8.57753 6.20012 8.33826 6.27679 8.16011 6.26785C7.991 6.25936 7.79729 6.25757 7.60382 6.25757C7.41033 6.25757 7.09586 6.33021 6.82982 6.6208C6.56378 6.91139 5.81396 7.6136 5.81396 9.04216C5.81396 10.4708 6.85399 11.851 6.99913 12.0447C7.14424 12.2385 9.04579 15.1701 11.9574 16.4274C12.6499 16.7264 13.1905 16.905 13.6121 17.0388C14.3074 17.2597 14.9402 17.2285 15.4402 17.1538C15.9979 17.0705 17.1575 16.4517 17.3994 15.7737C17.6412 15.0956 17.6412 14.5145 17.5687 14.3935Z" fill="white"/>
</svg>
